<svg width="369" height="270" viewBox="0 0 369 270" fill="none" xmlns="http://www.w3.org/2000/svg">
<g opacity="0.05">
<path fill-rule="evenodd" clip-rule="evenodd" d="M192.478 86.0352L192.478 4.25678L274.257 4.25678L274.257 13.0187C274.257 53.3446 241.566 86.0352 201.24 86.0352L192.478 86.0352Z" fill="#5E5E5E"/>
<path fill-rule="evenodd" clip-rule="evenodd" d="M369 86.0352L369 4.25678L287.222 4.25679L287.222 13.0188C287.222 53.3446 319.912 86.0352 360.238 86.0352L369 86.0352Z" fill="#5E5E5E"/>
<path fill-rule="evenodd" clip-rule="evenodd" d="M81.7784 3.2594L81.7784 85.0378L2.64628e-05 85.0378L2.60798e-05 76.2758C2.43171e-05 35.95 32.6906 3.2594 73.0164 3.2594L81.7784 3.2594Z" fill="#5E5E5E"/>
<path fill-rule="evenodd" clip-rule="evenodd" d="M0 97.0054L3.53105e-06 177.786L81.7784 177.786L81.7784 169.131C81.7784 129.297 49.0878 97.0054 8.76197 97.0054L0 97.0054Z" fill="#5E5E5E"/>
<path fill-rule="evenodd" clip-rule="evenodd" d="M0 269.538L-3.57465e-06 187.759L81.7784 187.759L81.7784 196.521C81.7784 236.847 49.0878 269.538 8.76197 269.538L0 269.538Z" fill="#5E5E5E"/>
<path fill-rule="evenodd" clip-rule="evenodd" d="M176.522 269.538L176.522 187.759L94.7432 187.759L94.7432 196.521C94.7432 236.847 127.434 269.538 167.76 269.538L176.522 269.538Z" fill="#5E5E5E"/>
<path fill-rule="evenodd" clip-rule="evenodd" d="M94.7433 98.0027L94.7433 179.781L176.522 179.781L176.522 171.019C176.522 130.693 143.831 98.0027 103.505 98.0027L94.7433 98.0027Z" fill="#5E5E5E"/>
<path fill-rule="evenodd" clip-rule="evenodd" d="M94.7432 5.25403L94.7432 86.0351L176.522 86.0351L176.522 77.38C176.522 37.5459 143.831 5.25403 103.505 5.25403L94.7432 5.25403Z" fill="#5E5E5E"/>
</g>
</svg>
