<svg width="15" height="16" viewBox="0 0 15 16" fill="none" xmlns="http://www.w3.org/2000/svg">
<g clip-path="url(#clip0_321_20)">
<path d="M9.75078 8.00005C9.75078 8.59679 9.51373 9.16908 9.09177 9.59104C8.66982 10.013 8.09752 10.25 7.50078 10.25C6.90404 10.25 6.33175 10.013 5.90979 9.59104C5.48783 9.16908 5.25078 8.59679 5.25078 8.00005C5.25128 7.87155 5.26353 7.74655 5.28753 7.62505H4.50078V10.6228C4.50078 10.8313 4.66953 11 4.87803 11H10.1243C10.2242 10.9999 10.32 10.96 10.3906 10.8893C10.4611 10.8186 10.5008 10.7227 10.5008 10.6228V7.62505H9.71403C9.73803 7.74655 9.75028 7.87155 9.75078 8.00005ZM7.50078 9.50005C7.69781 9.5 7.89291 9.46114 8.07492 9.3857C8.25694 9.31025 8.42231 9.19969 8.5616 9.06033C8.70088 8.92098 8.81136 8.75555 8.88672 8.5735C8.96207 8.39144 9.00083 8.19633 9.00078 7.9993C9.00073 7.80227 8.96187 7.60717 8.88643 7.42516C8.81098 7.24314 8.70042 7.07777 8.56107 6.93848C8.42171 6.7992 8.25628 6.68872 8.07423 6.61336C7.89218 6.53801 7.69706 6.49925 7.50003 6.4993C7.10211 6.4994 6.72052 6.65757 6.43922 6.93901C6.15791 7.22046 5.99993 7.60213 6.00003 8.00005C6.00013 8.39797 6.1583 8.77956 6.43975 9.06087C6.72119 9.34217 7.10286 9.50015 7.50078 9.50005ZM9.30078 6.42505H10.2C10.2296 6.42515 10.259 6.4194 10.2864 6.40814C10.3138 6.39687 10.3386 6.38032 10.3596 6.35941C10.3806 6.33851 10.3972 6.31367 10.4086 6.28633C10.4199 6.25898 10.4258 6.22966 10.4258 6.20005V5.3008C10.4259 5.27113 10.4201 5.24172 10.4088 5.21429C10.3975 5.18686 10.3809 5.16193 10.3599 5.14095C10.3389 5.11997 10.314 5.10334 10.2865 5.09203C10.2591 5.08072 10.2297 5.07495 10.2 5.07505H9.30078C9.27111 5.07495 9.24171 5.08072 9.21427 5.09203C9.18684 5.10334 9.16191 5.11997 9.14093 5.14095C9.11995 5.16193 9.10332 5.18686 9.09201 5.21429C9.0807 5.24172 9.07493 5.27113 9.07503 5.3008V6.20005C9.07578 6.3238 9.17703 6.42505 9.30078 6.42505ZM7.50078 0.800049C5.59122 0.800049 3.75987 1.55862 2.40961 2.90888C1.05935 4.25914 0.300781 6.09049 0.300781 8.00005C0.300781 9.90961 1.05935 11.741 2.40961 13.0912C3.75987 14.4415 5.59122 15.2 7.50078 15.2C8.4463 15.2 9.38256 15.0138 10.2561 14.652C11.1296 14.2901 11.9234 13.7598 12.592 13.0912C13.2605 12.4226 13.7909 11.6289 14.1527 10.7554C14.5145 9.88183 14.7008 8.94557 14.7008 8.00005C14.7008 7.05453 14.5145 6.11827 14.1527 5.24473C13.7909 4.37118 13.2605 3.57746 12.592 2.90888C11.9234 2.2403 11.1296 1.70995 10.2561 1.34812C9.38256 0.986282 8.4463 0.800049 7.50078 0.800049ZM11.2508 10.9168C11.2508 11.375 10.8758 11.75 10.4175 11.75H4.58403C4.12578 11.75 3.75078 11.375 3.75078 10.9168V5.0833C3.75078 4.62505 4.12578 4.25005 4.58403 4.25005H10.4175C10.8758 4.25005 11.2508 4.62505 11.2508 5.0833V10.9168Z" fill="black"/>
</g>
<defs>
<clipPath id="clip0_321_20">
<rect width="15" height="15" fill="white" transform="translate(0 0.5)"/>
</clipPath>
</defs>
</svg>
