<svg width="15" height="16" viewBox="0 0 15 16" fill="none" xmlns="http://www.w3.org/2000/svg">
<g clip-path="url(#clip0_321_16)">
<path d="M7.50078 0.800049C3.52428 0.800049 0.300781 4.02355 0.300781 8.00005C0.300781 11.9765 3.52428 15.2 7.50078 15.2C11.4773 15.2 14.7008 11.9765 14.7008 8.00005C14.7008 4.02355 11.4773 0.800049 7.50078 0.800049ZM5.73828 10.9843H4.28028V6.2923H5.73828V10.9843ZM5.00028 5.7163C4.53978 5.7163 4.24203 5.39005 4.24203 4.98655C4.24203 4.5748 4.54878 4.2583 5.01903 4.2583C5.48928 4.2583 5.77728 4.5748 5.78628 4.98655C5.78628 5.39005 5.48928 5.7163 5.00028 5.7163ZM11.0633 10.9843H9.60528V8.38405C9.60528 7.7788 9.39378 7.3678 8.86653 7.3678C8.46378 7.3678 8.22453 7.64605 8.11878 7.9138C8.07978 8.00905 8.07003 8.14405 8.07003 8.2783V10.9835H6.61128V7.78855C6.61128 7.2028 6.59253 6.71305 6.57303 6.29155H7.83978L7.90653 6.9433H7.93578C8.12778 6.6373 8.59803 6.1858 9.38478 6.1858C10.344 6.1858 11.0633 6.82855 11.0633 8.21005V10.9843Z" fill="black"/>
</g>
<defs>
<clipPath id="clip0_321_16">
<rect width="15" height="15" fill="white" transform="translate(0 0.5)"/>
</clipPath>
</defs>
</svg>
