<svg width="18" height="18" viewBox="0 0 18 18" fill="none" xmlns="http://www.w3.org/2000/svg">
<path d="M9 1.5C7.51664 1.5 6.0666 1.93987 4.83323 2.76398C3.59986 3.58809 2.63856 4.75943 2.07091 6.12987C1.50325 7.50032 1.35472 9.00832 1.64411 10.4632C1.9335 11.918 2.64781 13.2544 3.6967 14.3033C4.7456 15.3522 6.08197 16.0665 7.53683 16.3559C8.99168 16.6453 10.4997 16.4968 11.8701 15.9291C13.2406 15.3614 14.4119 14.4001 15.236 13.1668C16.0601 11.9334 16.5 10.4834 16.5 9C16.498 7.01149 15.7072 5.10498 14.3011 3.69889C12.895 2.2928 10.9885 1.50199 9 1.5ZM13.4543 7.28475V7.76925C13.4543 7.80633 13.4468 7.84304 13.4324 7.87721C13.418 7.91137 13.3969 7.9423 13.3703 7.96817C13.3438 7.99404 13.3123 8.01432 13.2778 8.02782C13.2432 8.04132 13.2063 8.04775 13.1693 8.04675C12.3774 7.9908 11.6198 7.70165 10.992 7.21575V10.7618C10.9918 11.1542 10.9135 11.5427 10.7615 11.9045C10.6096 12.2664 10.3871 12.5943 10.107 12.8693C9.82463 13.1514 9.48881 13.3743 9.1192 13.525C8.74959 13.6756 8.35362 13.751 7.9545 13.7467C7.1519 13.7456 6.38157 13.4307 5.808 12.8693C5.44305 12.5013 5.18017 12.0447 5.04525 11.5443C4.91033 11.0439 4.908 10.517 5.0385 10.0155C5.15775 9.534 5.3985 9.0915 5.73825 8.73075C5.99162 8.42106 6.31101 8.17192 6.67305 8.00154C7.03509 7.83116 7.43063 7.74385 7.83075 7.746H8.44575V9.02325C8.44602 9.06034 8.43839 9.09707 8.42335 9.13098C8.40831 9.16489 8.38621 9.1952 8.35853 9.2199C8.33085 9.2446 8.29823 9.26311 8.26283 9.27421C8.22743 9.28531 8.19008 9.28873 8.15325 9.28425C7.79617 9.17699 7.41139 9.21257 7.08003 9.38348C6.74867 9.55439 6.49661 9.84728 6.37699 10.2004C6.25736 10.5535 6.27952 10.9393 6.43879 11.2764C6.59806 11.6136 6.882 11.8757 7.23075 12.0075C7.43325 12.1237 7.65975 12.192 7.89225 12.2078C8.07225 12.2153 8.25225 12.1927 8.42325 12.1388C8.70872 12.0424 8.95703 11.8595 9.13355 11.6153C9.31007 11.3712 9.40602 11.078 9.408 10.7768V4.3155C9.408 4.24402 9.43635 4.17546 9.48682 4.12485C9.53729 4.07423 9.60577 4.0457 9.67725 4.0455H10.7385C10.8075 4.04559 10.8738 4.07205 10.9238 4.11946C10.9739 4.16688 11.0039 4.23165 11.0078 4.3005C11.0464 4.63142 11.1515 4.95113 11.3168 5.24045C11.482 5.52977 11.7039 5.78276 11.9693 5.98425C12.3278 6.25342 12.7537 6.41847 13.2 6.46125C13.2669 6.46697 13.3294 6.49671 13.376 6.54497C13.4226 6.59323 13.4501 6.65674 13.4535 6.72375L13.4543 7.28475Z" fill="black"/>
</svg>
